<svg width="482" height="350" viewBox="0 0 482 350" fill="none" xmlns="http://www.w3.org/2000/svg">
<path fill-rule="evenodd" clip-rule="evenodd" d="M294.172 133C294.172 160.062 272.234 182 245.172 182C218.11 182 196.17 160.062 196.17 133C196.17 105.938 218.11 84 245.172 84C272.234 84 294.172 105.938 294.172 133Z" fill="#29296E"/>
<path fill-rule="evenodd" clip-rule="evenodd" d="M267.973 119.898L266.727 116.049C266.474 115.266 265.856 114.657 265.07 114.416L261.202 113.227C260.667 113.063 260.662 112.308 261.193 112.136L265.044 110.89C265.826 110.636 266.435 110.019 266.677 109.233L267.865 105.364C268.028 104.83 268.784 104.825 268.956 105.357L270.202 109.207C270.455 109.988 271.073 110.597 271.859 110.839L275.727 112.027C276.263 112.192 276.269 112.946 275.736 113.118L271.885 114.364C271.104 114.618 270.494 115.237 270.253 116.023L269.065 119.89C268.901 120.425 268.146 120.431 267.973 119.898Z" fill="#FAFAFA"/>
<path fill-rule="evenodd" clip-rule="evenodd" d="M200.627 132.224C201.792 129.941 204.095 128.222 206.489 127.135C208.907 126.06 211.566 125.4 214.176 125.186C219.447 124.71 224.582 125.591 229.259 127.115C231.669 127.833 233.825 128.83 236.052 129.837C237.135 130.358 238.152 130.949 239.2 131.519L242.094 133.196C245.272 135.144 248.353 136.869 251.247 138.209C254.149 139.538 256.771 140.436 259.243 140.895C261.715 141.36 264.227 141.354 267.317 140.645C270.382 139.952 273.831 138.457 277.436 136.539C281.062 134.62 284.781 132.267 289.025 129.967C288.599 134.774 287.239 139.28 285.114 143.632C282.938 147.931 279.91 152.125 275.496 155.522C271.166 158.946 265.22 161.332 259.166 161.691C253.11 162.101 247.349 160.766 242.447 158.759C237.527 156.723 233.275 154.047 229.506 151.093C228.466 150.277 227.907 149.814 227.139 149.164L224.993 147.284C223.547 146.153 222.146 144.8 220.715 143.678C217.86 141.292 215.035 138.901 211.938 136.829C210.376 135.775 208.765 134.798 206.939 133.933C206.032 133.514 205.068 133.125 204.033 132.818C202.974 132.473 201.897 132.267 200.627 132.224Z" fill="#FF4F0A"/>
<path fill-rule="evenodd" clip-rule="evenodd" d="M200.627 132.224C201.221 127.279 203.527 122.64 207.221 118.692C210.897 114.782 216.64 111.768 223.012 111.368C226.156 111.158 229.349 111.509 232.284 112.322C235.205 113.132 237.943 114.313 240.411 115.704C241.644 116.403 242.797 117.167 243.946 117.938L247.009 120.257L251.789 124.028C254.891 126.499 257.852 128.784 260.589 130.671C263.352 132.561 265.705 133.941 267.952 134.75C270.179 135.633 272.993 135.859 276.712 134.924C278.559 134.499 280.485 133.721 282.54 132.879C284.583 132.017 286.705 130.988 289.025 129.967C288.745 132.454 288.24 134.93 287.281 137.244C286.359 139.59 285.145 141.885 283.447 144.025C282.579 145.067 281.648 146.115 280.563 147.082C279.477 148.025 278.275 148.921 276.946 149.707C274.297 151.242 271.153 152.364 267.929 152.763C264.705 153.169 261.467 152.966 258.519 152.341C255.556 151.733 252.855 150.753 250.376 149.622C245.436 147.323 241.302 144.435 237.648 141.377C235.813 139.85 234.093 138.255 232.463 136.636L230.538 134.704C229.958 134.144 229.372 133.581 228.792 133.066C226.453 130.998 224.282 129.418 221.891 128.432C219.518 127.4 216.48 126.976 212.754 127.674C209.042 128.364 204.97 129.969 200.627 132.224Z" fill="#FAFAFA"/>
<path fill-rule="evenodd" clip-rule="evenodd" d="M220.21 157.724C220.21 159.187 219.023 160.374 217.56 160.374C216.097 160.374 214.912 159.187 214.912 157.724C214.912 156.261 216.097 155.074 217.56 155.074C219.023 155.074 220.21 156.261 220.21 157.724Z" fill="#FAFAFA"/>
<path fill-rule="evenodd" clip-rule="evenodd" d="M220.21 157.724C220.21 159.187 219.023 160.374 217.56 160.374C216.097 160.374 214.912 159.187 214.912 157.724C214.912 156.261 216.097 155.074 217.56 155.074C219.023 155.074 220.21 156.261 220.21 157.724Z" fill="#FAFAFA"/>
<path d="M332 251.648C330.668 251.648 329.678 251.306 329.03 250.622C328.382 249.902 328.058 249.02 328.058 247.976V247.166C328.058 246.122 328.382 245.258 329.03 244.574C329.678 243.854 330.668 243.494 332 243.494C333.332 243.494 334.322 243.854 334.97 244.574C335.618 245.258 335.942 246.122 335.942 247.166V247.976C335.942 249.02 335.618 249.902 334.97 250.622C334.322 251.306 333.332 251.648 332 251.648ZM364.079 213.308V240.74C364.079 242.396 363.809 243.89 363.269 245.222C362.729 246.554 361.955 247.706 360.947 248.678C359.975 249.614 358.769 250.352 357.329 250.892C355.925 251.396 354.359 251.648 352.631 251.648C349.355 251.648 346.763 250.784 344.855 249.056C342.983 247.292 341.795 245.006 341.291 242.198L346.907 240.956C347.231 242.576 347.843 243.854 348.743 244.79C349.679 245.726 350.975 246.194 352.631 246.194C354.251 246.194 355.547 245.69 356.519 244.682C357.491 243.674 357.977 242.144 357.977 240.092V218.384H345.665V213.308H364.079ZM384.45 251.648C381.282 251.648 378.582 251.072 376.35 249.92C374.154 248.768 372.264 247.22 370.68 245.276L374.892 241.334C376.224 242.954 377.682 244.178 379.266 245.006C380.886 245.834 382.722 246.248 384.774 246.248C387.186 246.248 389.004 245.708 390.228 244.628C391.452 243.548 392.064 242.09 392.064 240.254C392.064 238.778 391.632 237.608 390.768 236.744C389.904 235.88 388.374 235.232 386.178 234.8L382.83 234.206C379.158 233.522 376.404 232.316 374.568 230.588C372.732 228.86 371.814 226.484 371.814 223.46C371.814 221.804 372.12 220.31 372.732 218.978C373.38 217.61 374.262 216.476 375.378 215.576C376.53 214.64 377.916 213.92 379.536 213.416C381.156 212.912 382.974 212.66 384.99 212.66C387.834 212.66 390.3 213.164 392.388 214.172C394.476 215.144 396.258 216.566 397.734 218.438L393.468 222.218C392.496 220.958 391.308 219.95 389.904 219.194C388.5 218.438 386.754 218.06 384.666 218.06C382.506 218.06 380.832 218.492 379.644 219.356C378.456 220.22 377.862 221.48 377.862 223.136C377.862 224.72 378.348 225.908 379.32 226.7C380.292 227.456 381.804 228.032 383.856 228.428L387.204 229.13C390.984 229.85 393.738 231.074 395.466 232.802C397.23 234.53 398.112 236.906 398.112 239.93C398.112 241.694 397.806 243.296 397.194 244.736C396.582 246.176 395.682 247.418 394.494 248.462C393.342 249.47 391.92 250.262 390.228 250.838C388.536 251.378 386.61 251.648 384.45 251.648Z" fill="#FE4A49"/>
<path fill-rule="evenodd" clip-rule="evenodd" d="M102.37 231.783C101.138 230.98 98.902 229.967 95.662 228.744C92.421 227.521 90.172 226.423 88.913 225.45C87.655 224.477 87.025 223.133 87.025 221.419C87.025 219.705 87.663 218.353 88.94 217.362C90.216 216.371 91.899 215.876 93.988 215.876C96.077 215.876 97.777 216.443 99.089 217.576C100.402 218.71 101.058 220.321 101.058 222.41H106.173C106.173 218.822 104.985 216.014 102.611 213.988C100.236 211.962 97.376 210.949 94.028 210.949C90.681 210.949 87.837 211.89 85.499 213.774C83.16 215.658 81.991 218.188 81.991 221.366C81.991 223.83 82.597 225.784 83.812 227.231C84.454 227.998 85.07 228.646 85.659 229.172C86.249 229.699 87.489 230.422 89.382 231.341C91.274 232.261 92.881 232.881 94.202 233.202C96.745 234.294 98.83 235.184 100.161 236.148C101.49 237.112 102.156 238.438 102.156 240.125C102.156 241.812 101.464 243.174 100.08 244.209C98.697 245.244 96.787 245.762 94.35 245.762C91.913 245.762 89.926 245.151 88.391 243.928C86.855 242.705 86.088 240.96 86.088 238.692H81C81 242.495 82.307 245.459 84.923 247.583C87.538 249.708 90.694 250.77 94.39 250.77C98.085 250.77 101.156 249.797 103.602 247.851C106.048 245.905 107.257 243.254 107.231 239.897C107.204 236.541 105.584 233.836 102.37 231.783Z" fill="#26296E"/>
<path fill-rule="evenodd" clip-rule="evenodd" d="M136.239 212.028H110.995V216.828H121.098V250.054H126.083V216.828H136.239V212.028Z" fill="#26296E"/>
<path fill-rule="evenodd" clip-rule="evenodd" d="M149.391 212.028L135.363 250.054H140.746C140.746 250.054 142.113 245.823 143.222 244.093C148.041 236.582 156.053 235.666 158.628 235.735L163.763 250.054H169.146L155.092 212.028H149.391ZM146.333 234.477L152.255 217.968L156.895 230.904C154.249 231.098 150.392 231.894 146.333 234.477Z" fill="#26296E"/>
<path fill-rule="evenodd" clip-rule="evenodd" d="M234.828 212.028H228.623L212.766 229.264V212.028H207.728V250.054H212.766V231.81L229.18 250.054H235.358L218.043 230.564L234.828 212.028Z" fill="#26296E"/>
<path fill-rule="evenodd" clip-rule="evenodd" d="M259.834 235.496L245.011 212.028H239.31V250.054H246.814V226.533L261.584 250.054H267.285V212.028H259.834V235.496Z" fill="#26296E"/>
<path fill-rule="evenodd" clip-rule="evenodd" d="M279.427 234.356H292.845V227.356H279.427V219.215H294.197V212.029H271.923V250.054H294.462V242.895H279.427V234.356Z" fill="#26296E"/>
<path fill-rule="evenodd" clip-rule="evenodd" d="M298.313 212.028V219.215H307.434V250.054H314.913V219.215H324.087V212.028H298.313Z" fill="#26296E"/>
<path fill-rule="evenodd" clip-rule="evenodd" d="M191.964 236.365C191.196 235.655 190.417 235.038 189.636 234.495C192.088 234.133 194.73 232.793 196.431 230.617C197.982 228.634 198.659 226.321 198.659 223.829C198.659 220.558 197.501 217.774 195.185 215.476C192.869 213.178 190.085 212.029 186.832 212.029H172.99V250.054H178.028V235.714C180.783 235.778 184.88 236.473 188.646 239.953C192.257 243.295 194.752 247.447 196.037 250.052H201.388C200.28 247.174 197.105 241.119 191.964 236.365ZM186.832 216.775C188.706 216.775 190.306 217.461 191.632 218.83C192.958 220.2 193.62 221.862 193.62 223.815C193.62 225.769 192.978 227.464 191.632 228.84C189.231 231.294 183.682 230.805 178.177 230.83C178.127 230.829 178.077 230.827 178.028 230.826V216.775H186.832Z" fill="#26296E"/>
</svg>
